# xmcd
# 
# Track frame offsets:
#     150
#     28993
#     45172
#     65675
#     94185
#     132330
#     164929
#     190682
#     205530
#     223586
#     237976
#     261564
#     275425
#     290058
#     306117
# 
# Disc length: 4551
# 
# Revision: 0
# Processed by: cddbd v1.5.2PL0 Copyright (c) Steve Scherf et al.
# Submitted via: fre:ac v1.0.17
# 
DISCID=ec11c50f
DTITLE=Buddy Guy - The very best of
DYEAR=0
DGENRE=Blues
TTITLE0=Born under a bad sign
TTITLE1=Catfish blues
TTITLE2=Damn right I've got the blues
TTITLE3=Don't tell me about the blues
TTITLE4=Five long years
TTITLE5=Garbage man blues
TTITLE6=Heavy love
TTITLE7=I smell trouble
TTITLE8=Let me love u baby
TTITLE9=Trouble blues
TTITLE10=Little bad-A-doo
TTITLE11=Man of many words
TTITLE12=My time after a while
TTITLE13=Sweet black girl
TTITLE14=Sweet black angel
EXTD=
EXTT0=
EXTT1=
EXTT2=
EXTT3=
EXTT4=
EXTT5=
EXTT6=
EXTT7=
EXTT8=
EXTT9=
EXTT10=
EXTT11=
EXTT12=
EXTT13=
EXTT14=
PLAYORDER=
